<?xml version="1.0" encoding="utf-8"?>
<!-- Generator: Adobe Illustrator 26.0.1, SVG Export Plug-In . SVG Version: 6.00 Build 0)  -->
<svg version="1.1" id="Layer_1" xmlns="http://www.w3.org/2000/svg" xmlns:xlink="http://www.w3.org/1999/xlink" x="0px" y="0px"
	 viewBox="0 0 421.83 167.18" style="enable-background:new 0 0 421.83 167.18;" xml:space="preserve">
<style type="text/css">
	.st0{fill:#0F283E;}
	.st1{fill:#88AFA6;}
</style>
<g>
	<g>
		<path class="st0" d="M393.98,108.05c0-8.78-7.15-15.93-15.93-15.93c-6.45,0-12.01,3.85-14.51,9.37c-2.5-5.52-8.06-9.37-14.51-9.37
			c-8.79,0-15.93,7.15-15.93,15.93c0,1.85,0.32,3.63,0.9,5.29c0.67,1.89,1.68,3.61,2.96,5.09c0.55,0.64,1.14,1.23,1.78,1.77
			l24.3,24.14c0.15,0.15,0.34,0.22,0.54,0.22c0.2,0,0.39-0.07,0.55-0.22l25.2-25.04l0,0c1.63-1.64,2.91-3.62,3.72-5.84
			C393.65,111.76,393.98,109.94,393.98,108.05z"/>
	</g>
</g>
<g>
	<g>
		<path class="st0" d="M145.65,41.73h-12.61l-8.58,44.13h-11.42l8.58-44.13h-12.65l2.12-10.97h36.67L145.65,41.73z"/>
	</g>
	<g>
		<path class="st0" d="M170.49,78.16h-20.06l-4.48,7.69h-13.23l35.55-56.46h1.81l13.64,56.46h-11.55L170.49,78.16z M168.41,68.73
			l-3.38-15.52l-9.06,15.52H168.41z"/>
	</g>
	<g>
		<path class="st0" d="M242.48,30.62l-10.94,56.26h-0.99l-24.03-31.68l-5.95,30.73h-11.35l10.94-56.19h1.03l23.96,31.58l5.98-30.69
			H242.48z"/>
	</g>
	<g>
		<path class="st0" d="M290.23,58.37c-3.42,27.48-28.75,27.48-32.92,27.48h-15.96l10.7-55.06l15.96-0.03
			C278.74,30.72,292.86,37.28,290.23,58.37z M265.79,41.73h-4.48l-6.43,33.09h4.58c10.53,0,17.77-6.49,19.21-16.51
			C280.24,47.3,273.48,41.73,265.79,41.73z"/>
	</g>
	<g>
		<path class="st0" d="M312.13,41.66l-2.08,10.77h17.43l-2.15,11.04H307.9l-2.19,11.38h20.51l-2.15,11.01h-31.89l10.7-55.1h31.89
			l-2.12,10.9H312.13z"/>
	</g>
	<g>
		<path class="st0" d="M395.09,29.39l-10.97,56.46H372.7l4.51-23.21l-19.17,22.29h-0.07l-9.88-22.15l-4.48,23.07H332.2l10.97-56.46
			h1.23l16.61,36.16l32.81-36.16H395.09z"/>
	</g>
</g>
<g>
	<g>
		<path class="st0" d="M40.34,101.74l-2.15,11.11h17.47l-2.15,11.04H36.07L31.76,146H20.38l10.77-55.3h31.89l-2.15,11.04H40.34z"/>
	</g>
	<g>
		<path class="st0" d="M85.73,138.24H65.67l-4.48,7.69H47.97l35.55-56.46h1.81l13.64,56.46H87.41L85.73,138.24z M83.65,128.81
			l-3.38-15.52l-9.06,15.52H83.65z"/>
	</g>
	<g>
		<path class="st0" d="M157.72,90.7l-10.94,56.26h-0.99l-24.03-31.68L115.81,146h-11.35l10.94-56.19h1.03l23.96,31.58l5.98-30.69
			H157.72z"/>
	</g>
	<g>
		<path class="st0" d="M205.46,118.45c-3.42,27.48-28.75,27.48-32.92,27.48h-15.96l10.7-55.06l15.96-0.03
			C193.98,90.8,208.1,97.36,205.46,118.45z M181.03,101.81h-4.48l-6.43,33.09h4.58c10.53,0,17.77-6.49,19.21-16.51
			C195.48,107.38,188.72,101.81,181.03,101.81z"/>
	</g>
	<g>
		<path class="st0" d="M210.39,118.49c2.43-17.16,16.06-29.26,31.58-28.47c14.8,0.75,23.62,12.78,21.26,28.92
			c-2.5,17.09-16.17,29.02-31.62,28.23C216.98,146.41,208.1,134.59,210.39,118.49z M251.85,118.73
			c1.74-10.05-3.73-17.53-11.93-17.67c-8.34-0.17-16.44,7.35-18.15,17.47c-1.67,9.81,3.49,17.36,11.86,17.53
			C242.24,136.26,250.14,128.54,251.85,118.73z"/>
	</g>
	<g>
		<path class="st0" d="M328.07,89.47l-10.97,56.46h-11.42l4.51-23.21l-19.17,22.29h-0.07l-9.88-22.15l-4.48,23.07h-11.42
			l10.97-56.46h1.23l16.61,36.16l32.81-36.16H328.07z"/>
	</g>
</g>
<g>
	<path class="st0" d="M45.49,66.39c-6.66-6.77-6.11-17.01,0.02-22.98c6.03-5.87,15.44-6.15,21.76-0.76
		c6.64,5.66,7.97,16.68,0.84,23.77c5.25,0.88,9.3,3.54,11.97,8.15c1.9,3.27,2.63,7.85,1.89,11.32c-16.95,0-33.91,0-50.87,0
		c-0.02-0.04-0.06-0.07-0.06-0.1c0.08-3.42,0.06-6.86,1.63-10.04c2.51-5.1,6.54-8.18,12.14-9.21
		C45.02,66.48,45.22,66.44,45.49,66.39z"/>
</g>
<g>
	<path class="st1" d="M86.56,86.01c-0.11,0-0.21-0.04-0.28-0.12c-0.07-0.08-0.11-0.18-0.1-0.29c0.88-9.7-2.74-16.76-11.06-21.58
		c-0.17-0.1-0.23-0.31-0.15-0.49c1-2.1,1.61-4.11,1.87-6.16c0.73-5.8-0.77-11.06-4.45-15.62c-1.93-2.39-4.34-4.24-7.15-5.49
		c-0.65-0.29-0.89-0.73-0.79-1.45c0.78-5.8,3.7-10.09,8.66-12.75c2.43-1.3,5.03-1.96,7.74-1.96c7.97,0,14.77,5.67,16.18,13.48
		c0.96,5.35-0.45,10.16-4.19,14.29c1.97,0.35,3.68,0.97,5.23,1.87c5.18,3.04,8.03,7.51,8.47,13.31c0.13,1.67,0.09,3.38,0.06,5.03
		c-0.01,0.65-0.03,1.3-0.03,1.95c-0.02,3.52-0.05,7.03-0.08,10.55l-0.03,5.07c0,0.21-0.17,0.38-0.38,0.38H86.56z"/>
	<g>
		<path class="st0" d="M80.84,20.48c7.42,0,14.38,5.2,15.81,13.17c0.96,5.34-0.5,10.04-4.17,14.05c-0.09,0.1-0.19,0.2-0.28,0.3
			c-0.02,0.02-0.01,0.07-0.02,0.15c2.01,0.3,3.93,0.89,5.68,1.92c4.98,2.92,7.85,7.23,8.29,13.01c0.17,2.3,0.04,4.63,0.03,6.94
			c-0.03,5-0.07,10-0.11,15.01c0,0.19,0,0.38,0,0.61c-6.52,0-12.99,0-19.5,0c0.87-9.67-2.76-17.02-11.25-21.94
			c0.95-2,1.62-4.08,1.9-6.27c0.75-5.95-0.78-11.25-4.53-15.9c-1.98-2.44-4.42-4.32-7.29-5.6c-0.54-0.24-0.64-0.53-0.57-1.06
			c0.75-5.57,3.51-9.82,8.46-12.47C75.72,21.08,78.3,20.48,80.84,20.48 M80.84,19.73C80.84,19.73,80.84,19.73,80.84,19.73
			c-2.77,0-5.44,0.67-7.92,2c-5.07,2.72-8.05,7.11-8.85,13.03c-0.08,0.56-0.05,1.37,1.01,1.84c2.76,1.23,5.12,3.04,7.01,5.39
			c3.62,4.48,5.09,9.64,4.37,15.34c-0.25,2-0.85,3.98-1.83,6.05c-0.17,0.35-0.04,0.77,0.3,0.97c8.18,4.74,11.74,11.68,10.88,21.22
			c-0.02,0.21,0.05,0.42,0.19,0.57c0.14,0.16,0.34,0.24,0.55,0.24h19.5c0.41,0,0.75-0.34,0.75-0.75l0-0.22l0-0.39l0.03-4.5
			c0.03-3.5,0.05-7.01,0.08-10.51c0-0.65,0.02-1.29,0.03-1.94c0.03-1.66,0.07-3.37-0.06-5.07c-0.45-5.92-3.36-10.5-8.65-13.6
			c-1.41-0.83-2.96-1.42-4.7-1.79c3.5-4.11,4.8-8.85,3.85-14.11C95.95,25.52,88.99,19.73,80.84,19.73L80.84,19.73z"/>
	</g>
</g>
<g>
	<path class="st1" d="M363.53,128.91c-1.97,0-3.54-1.54-3.58-3.52c-0.01-0.79-0.01-1.58-0.01-2.38l0-1.12l-1.99,0
		c-0.48,0-0.96,0-1.45,0c-1.7-0.01-3.22-1.31-3.47-2.95c-0.28-1.82,0.74-3.52,2.43-4.03c0.46-0.14,0.95-0.17,1.32-0.17
		c0.5-0.01,1-0.01,1.5-0.01l1.65,0l0-1.07c0-0.75,0-1.51,0-2.27c0.02-1.94,1.41-3.46,3.31-3.62c0.1-0.01,0.19-0.01,0.28-0.01
		c1.7,0,3.17,1.26,3.5,3c0.04,0.23,0.05,0.46,0.05,0.7l0,3.26c0.04,0,0.66,0.01,0.66,0.01l1.27,0c0.64,0,1.28,0.01,1.92,0.05
		c1.81,0.11,3.23,1.78,3.17,3.71c-0.06,1.8-1.61,3.36-3.38,3.4c-0.47,0.01-0.95,0.01-1.42,0.01l-2.2-0.01c0,0,0,2.65,0,3.43
		c-0.01,2-1.56,3.58-3.54,3.59C363.55,128.91,363.53,128.91,363.53,128.91z"/>
	<path class="st0" d="M363.54,108.14c1.51,0,2.83,1.12,3.13,2.69c0.04,0.22,0.04,0.45,0.04,0.67c0,1.18,0,2.36,0,3.58
		c0.19,0.01,0.34,0.02,0.49,0.02c0.17,0,0.35,0,0.52,0c0.43,0,0.86,0,1.29,0c0.63,0,1.26,0.01,1.89,0.05
		c1.64,0.1,2.87,1.61,2.81,3.33c-0.05,1.6-1.43,3-3.02,3.03c-0.48,0.01-0.95,0.01-1.43,0.01c-0.67,0-1.33-0.01-2-0.01
		c-0.03,0-0.05,0-0.08,0c-0.05,0-0.1,0-0.16,0c-0.1,0-0.2,0-0.33,0c0,0.17,0,0.31,0,0.45c0,1.12,0,2.23,0,3.35
		c-0.01,1.78-1.41,3.2-3.16,3.21c-0.01,0-0.01,0-0.02,0c-1.77,0-3.17-1.36-3.2-3.15c-0.02-1.13,0-2.26,0-3.38c0-0.14,0-0.29,0-0.48
		c-0.81,0-1.59,0-2.36,0c-0.48,0-0.97,0-1.45,0c-1.53-0.01-2.88-1.17-3.11-2.63c-0.25-1.64,0.64-3.15,2.17-3.62
		c0.39-0.12,0.81-0.15,1.22-0.16c0.5-0.01,1-0.01,1.51-0.01c0.66,0,1.33,0,2.02,0c0-0.17,0-0.31,0-0.44c0-1.09-0.01-2.18,0-3.27
		c0.02-1.75,1.26-3.11,2.97-3.25C363.37,108.14,363.46,108.14,363.54,108.14 M363.54,107.39c-0.1,0-0.21,0-0.31,0.01
		c-2.1,0.17-3.64,1.85-3.66,3.99c-0.01,0.75-0.01,1.51,0,2.26l0,0.7l-0.28,0l-0.99,0c-0.51,0-1.02,0-1.52,0.01
		c-0.4,0.01-0.92,0.03-1.42,0.19c-1.87,0.57-3,2.44-2.69,4.45c0.28,1.85,1.94,3.25,3.84,3.27c0.48,0,0.97,0,1.45,0l1.16,0l0.45,0
		l0,0.77c0,0.78-0.01,1.57,0.01,2.35c0.04,2.18,1.77,3.88,3.95,3.88c2.21-0.01,3.93-1.75,3.93-3.96c0-0.77,0-1.54,0-2.31l0-0.74
		l0.81,0l1,0c0.48,0,0.96,0,1.44-0.01c1.97-0.05,3.69-1.77,3.75-3.76c0.07-2.13-1.51-3.97-3.52-4.1c-0.69-0.04-1.36-0.05-1.94-0.05
		l-0.65,0l-0.64,0c-0.09,0-0.18,0-0.26,0l0-0.22c0-0.89,0-1.76,0-2.64c0-0.27,0-0.54-0.05-0.81
		C367.05,108.78,365.42,107.39,363.54,107.39L363.54,107.39z"/>
</g>
</svg>
