<svg id="Layer_1" data-name="Layer 1" xmlns="http://www.w3.org/2000/svg" viewBox="0 0 377.13 128.72"><defs><style>.cls-1{fill:#0f283e;}.cls-2,.cls-3{fill:#fff;}.cls-3{stroke:#0f283e;stroke-miterlimit:10;stroke-width:2px;}.cls-4{fill:#88afa6;}</style></defs><path class="cls-1" d="M363.58,145.05a1.22,1.22,0,0,1-.89-.37l-24.3-24.13a17.06,17.06,0,0,1-1.81-1.8,16.46,16.46,0,0,1-4-10.7,16.42,16.42,0,0,1,30.94-7.7,16.42,16.42,0,0,1,30.94,7.7,16.25,16.25,0,0,1-1,5.57,16.61,16.61,0,0,1-3.56,5.75h0l-.27.28-25.2,25A1.26,1.26,0,0,1,363.58,145.05Z" transform="translate(-19.17 -19.48)"/><path class="cls-2" d="M378.05,92.11a15.91,15.91,0,0,1,11.27,27.18h0l-25.2,25a.77.77,0,0,1-.55.22.75.75,0,0,1-.54-.22l-24.3-24.14a16.43,16.43,0,0,1-1.78-1.76,15.84,15.84,0,0,1-2.95-5.1,15.66,15.66,0,0,1-.91-5.28,15.93,15.93,0,0,1,30.44-6.57,16,16,0,0,1,14.51-9.37m0-1a17,17,0,0,0-14.51,8.22,16.92,16.92,0,1,0-27.33,19.75,16.25,16.25,0,0,0,1.86,1.85L362.34,145a1.74,1.74,0,0,0,1.24.51,1.76,1.76,0,0,0,1.25-.51L390,120l.53-.53v0a17.06,17.06,0,0,0,3.43-5.66,16.71,16.71,0,0,0,1-5.74,17,17,0,0,0-16.93-16.94Z" transform="translate(-19.17 -19.48)"/><path class="cls-3" d="M145.65,41.73H133l-8.58,44.12H113l8.58-44.12H109l2.12-11h36.67Z" transform="translate(-19.17 -19.48)"/><path class="cls-3" d="M170.49,78.16H150.43L146,85.85H132.73l35.54-56.46h1.81l13.64,56.46H172.17Zm-2.08-9.43L165,53.21,156,68.73Z" transform="translate(-19.17 -19.48)"/><path class="cls-3" d="M242.48,30.62,231.54,86.88h-1l-24-31.69-6,30.73H189.22l10.94-56.19h1l24,31.58,6-30.69Z" transform="translate(-19.17 -19.48)"/><path class="cls-3" d="M290.23,58.37c-3.42,27.48-28.75,27.48-32.92,27.48h-16l10.7-55.06,16,0C278.74,30.72,292.86,37.28,290.23,58.37ZM265.79,41.73h-4.48l-6.43,33.08h4.58c10.53,0,17.78-6.49,19.21-16.51C280.24,47.3,273.48,41.73,265.79,41.73Z" transform="translate(-19.17 -19.48)"/><path class="cls-3" d="M312.13,41.66l-2.08,10.76h17.43l-2.15,11H307.9l-2.19,11.39h20.51l-2.16,11H292.17l10.7-55.1h31.89l-2.12,10.91Z" transform="translate(-19.17 -19.48)"/><path class="cls-3" d="M395.09,29.39l-11,56.46H372.7l4.51-23.21L358,84.93H358l-9.88-22.15-4.48,23.07H332.2l11-56.46h1.23L361,65.55l32.81-36.16Z" transform="translate(-19.17 -19.48)"/><path class="cls-3" d="M40.34,101.74l-2.15,11.11H55.66l-2.16,11H36.07L31.76,146H20.38L31.15,90.7H63l-2.15,11Z" transform="translate(-19.17 -19.48)"/><path class="cls-3" d="M85.73,138.24H65.67l-4.48,7.69H48L83.51,89.47h1.81L99,145.93H87.41Zm-2.08-9.43-3.38-15.52-9.06,15.52Z" transform="translate(-19.17 -19.48)"/><path class="cls-3" d="M157.72,90.7,146.78,147h-1l-24-31.69-6,30.73H104.46L115.4,89.81h1l24,31.58,6-30.69Z" transform="translate(-19.17 -19.48)"/><path class="cls-3" d="M205.46,118.45c-3.41,27.48-28.74,27.48-32.91,27.48h-16l10.7-55.06,16,0C194,90.8,208.1,97.36,205.46,118.45ZM181,101.81h-4.48l-6.43,33.08h4.58c10.53,0,17.78-6.49,19.21-16.51C195.48,107.38,188.72,101.81,181,101.81Z" transform="translate(-19.17 -19.48)"/><path class="cls-3" d="M210.39,118.49C212.81,101.33,226.45,89.23,242,90c14.8.75,23.62,12.78,21.26,28.91-2.5,17.09-16.17,29-31.62,28.23C217,146.41,208.1,134.59,210.39,118.49Zm41.46.24c1.74-10-3.73-17.54-11.93-17.67s-16.44,7.34-18.15,17.46c-1.68,9.81,3.48,17.36,11.86,17.54C242.24,136.26,250.14,128.54,251.85,118.73Z" transform="translate(-19.17 -19.48)"/><path class="cls-3" d="M328.07,89.47l-11,56.46H305.68l4.51-23.2L291,145H291l-9.88-22.15-4.48,23.07H265.18l11-56.46h1.23L294,125.63,326.8,89.47Z" transform="translate(-19.17 -19.48)"/><path class="cls-1" d="M30.82,86.38l-.15-.24a.58.58,0,0,1-.13-.38v-.62c.07-3.21.15-6.54,1.67-9.63a16.65,16.65,0,0,1,12.29-9.44,16.61,16.61,0,1,1,28.86-11.7A16.35,16.35,0,0,1,69.1,66.09a16.69,16.69,0,0,1,11.41,8.22A17.61,17.61,0,0,1,82.46,86l-.08.4Z" transform="translate(-19.17 -19.48)"/><path class="cls-2" d="M56.82,38.79a16.05,16.05,0,0,1,10.45,3.85,16.23,16.23,0,0,1,.84,23.77,16.28,16.28,0,0,1,12,8.15A17.14,17.14,0,0,1,82,85.88H31.1s-.06-.07-.06-.1c.08-3.43.06-6.86,1.63-10a16.12,16.12,0,0,1,12.14-9.22l.68-.13a16.11,16.11,0,0,1,11.33-27.6m0-1h0a17.11,17.11,0,0,0-13.23,28,17.08,17.08,0,0,0-11.82,9.53c-1.57,3.19-1.64,6.57-1.72,9.85v.61a1,1,0,0,0,.23.68l.27.45H82.78l.17-.79a18.15,18.15,0,0,0-2-12A17.08,17.08,0,0,0,70,65.79a16.83,16.83,0,0,0,3.85-11.44A17,17,0,0,0,56.82,37.79Z" transform="translate(-19.17 -19.48)"/><path class="cls-4" d="M86.56,86.14a.48.48,0,0,1-.37-.17.52.52,0,0,1-.13-.38c.87-9.65-2.73-16.67-11-21.46a.51.51,0,0,1-.2-.65,20.16,20.16,0,0,0-2.57-21.64,18.87,18.87,0,0,0-7.11-5.46,1.34,1.34,0,0,1-.87-1.58A16.71,16.71,0,0,1,80.84,20a16.53,16.53,0,0,1,16.3,13.58,16.2,16.2,0,0,1-4.07,14.23,15.44,15.44,0,0,1,5,1.84A16.31,16.31,0,0,1,106.65,63c.12,1.68.09,3.38,0,5l0,1.94c0,3.52,0,7-.07,10.55l0,5.07a.5.5,0,0,1-.5.5Z" transform="translate(-19.17 -19.48)"/><path class="cls-2" d="M80.84,20.48A16,16,0,0,1,96.65,33.65,15.77,15.77,0,0,1,92.48,47.7a4,4,0,0,0-.28.3s0,.07,0,.14a16.31,16.31,0,0,1,14,14.94c.17,2.3,0,4.62,0,6.94q0,7.5-.11,15v.61H86.56c.87-9.68-2.76-17-11.25-21.94a20.68,20.68,0,0,0,1.9-6.27,20.31,20.31,0,0,0-4.53-15.91,19.49,19.49,0,0,0-7.3-5.6.85.85,0,0,1-.57-1.06,15.77,15.77,0,0,1,8.46-12.47,16,16,0,0,1,7.57-1.91m0-1h0a17.2,17.2,0,0,0-17,15.25A1.82,1.82,0,0,0,65,36.84a18.5,18.5,0,0,1,6.92,5.31,19.64,19.64,0,0,1,2.51,21.12,1,1,0,0,0,.4,1.29c8.09,4.69,11.6,11.55,10.75,21a1,1,0,0,0,.26.76,1,1,0,0,0,.74.33h19.5a1,1,0,0,0,1-1V85l0-4.5c0-3.5.05-7,.07-10.51l0-1.93c0-1.66.07-3.39-.06-5.09a16.76,16.76,0,0,0-8.77-13.8A16,16,0,0,0,94,47.47a16.57,16.57,0,0,0,3.64-14,17,17,0,0,0-16.79-14Z" transform="translate(-19.17 -19.48)"/><path class="cls-4" d="M363.53,128.91a3.55,3.55,0,0,1-3.58-3.52c0-.79,0-1.58,0-2.38v-1.12h-3.43a3.58,3.58,0,0,1-1-7,4.6,4.6,0,0,1,1.32-.17l1.5,0h1.65v-1.07c0-.76,0-1.51,0-2.27a3.58,3.58,0,0,1,3.31-3.62h.28a3.62,3.62,0,0,1,3.5,3,5.49,5.49,0,0,1,0,.7v3.26H369c.64,0,1.28,0,1.92,0a3.55,3.55,0,0,1,3.17,3.72,3.59,3.59,0,0,1-3.39,3.4h-3.62v3.43a3.56,3.56,0,0,1-3.54,3.59Z" transform="translate(-19.17 -19.48)"/><path class="cls-1" d="M363.54,108.14a3.22,3.22,0,0,1,3.13,2.69,3.77,3.77,0,0,1,0,.67v3.58l.49,0H369c.63,0,1.26,0,1.89.05a3.15,3.15,0,0,1,2.81,3.33,3.2,3.2,0,0,1-3,3l-1.42,0h-2.57V122c0,1.12,0,2.23,0,3.35a3.19,3.19,0,0,1-3.16,3.21h0a3.17,3.17,0,0,1-3.21-3.15c0-1.12,0-2.25,0-3.38v-.48h-3.81a3.2,3.2,0,0,1-.93-6.25,4.47,4.47,0,0,1,1.21-.16h3.53v-.44c0-1.09,0-2.18,0-3.27a3.2,3.2,0,0,1,3-3.24h.25m0-.75h-.31a4,4,0,0,0-3.66,4c0,.75,0,1.51,0,2.26v.7h-2.79a5.45,5.45,0,0,0-1.42.19,4,4,0,0,0,1.15,7.72h3.06V123c0,.79,0,1.57,0,2.36a3.95,3.95,0,0,0,7.89-.08v-3h1.82l1.44,0a4,4,0,0,0,3.75-3.76,3.92,3.92,0,0,0-3.52-4.1c-.68,0-1.36-.05-1.93-.05h-1.56V111.5a4.46,4.46,0,0,0,0-.81,4,4,0,0,0-3.87-3.3Z" transform="translate(-19.17 -19.48)"/></svg>